<svg aria-hidden="true" style="position: absolute; width: 0; height: 0; overflow: hidden;" version="1.1" xmlns="http://www.w3.org/2000/svg" xmlns:xlink="http://www.w3.org/1999/xlink">
<defs>


<symbol id="icon-bread" viewBox="0 0 32 32">
<path stroke-linejoin="round" stroke-linecap="round" stroke-miterlimit="2" stroke-width="1" d="M10.112 22.049c-0.028 0.64 0.205 1.262 0.647 1.725s1.054 0.724 1.694 0.724c3.621 0.003 10.864 0.003 14.398 0.003 1.275 0 2.317-1.018 2.346-2.291 0.063-2.979-1.099-7.803-9.343-7.803-8.097 0-9.607 4.655-9.742 7.643z"></path>
<path stroke-linejoin="round" stroke-linecap="round" stroke-miterlimit="2" stroke-width="1" d="M23.099 14.938c0.387 0.573 1.088 1.936 1.331 4.515"></path>
<path stroke-linejoin="round" stroke-linecap="round" stroke-miterlimit="2" stroke-width="1" d="M18.851 14.601c0 0 1.253 1.217 1.593 4.852"></path>
<path stroke-linejoin="round" stroke-linecap="round" stroke-miterlimit="2" stroke-width="1" d="M15.44 15.469c0.377 0.74 0.834 2.002 1.020 3.984"></path>
<path stroke-linejoin="round" stroke-linecap="round" stroke-miterlimit="2" stroke-width="1" d="M19.946 14.219c0.733-0.78 0.902-1.976 0.34-2.95-1.495-2.588-4.932-5.936-11.905-1.873-6.842 3.987-5.998 8.649-4.66 11.33 0.308 0.616 0.857 1.076 1.517 1.273s1.372 0.111 1.966-0.235c0.245-0.143 0.509-0.297 0.787-0.459"></path>
<path stroke-linejoin="round" stroke-linecap="round" stroke-miterlimit="2" stroke-width="1" d="M11.453 8.221c0.724-0.003 2.114 0.524 3.423 3.232"></path>
<path stroke-linejoin="round" stroke-linecap="round" stroke-miterlimit="2" stroke-width="1" d="M7.613 10.069c0.106-0.291 2.013-0.451 3.82 3.39"></path>
<path stroke-linejoin="round" stroke-linecap="round" stroke-miterlimit="2" stroke-width="1" d="M5.103 12.536c1.046 0.294 2.276 1.067 2.888 2.929"></path>
</symbol>



<symbol id="icon-cake" viewBox="0 0 32 32">
<path   stroke-linejoin="round" stroke-linecap="round" stroke-miterlimit="2" stroke-width="1" d="M29.166 11.239c0 1.845-2.016 3.482-5.12 4.498"></path>
<path   stroke-linejoin="round" stroke-linecap="round" stroke-miterlimit="2" stroke-width="1" d="M16 16.819c-2.316 0-4.486-0.28-6.348-0.77"></path>
<path   stroke-linejoin="round" stroke-linecap="round" stroke-miterlimit="2" stroke-width="1" d="M12.514 5.509c1.111-0.136 2.28-0.208 3.486-0.208 0.922 0 1.823 0.043 2.692 0.123"></path>
<path   stroke-linejoin="round" stroke-linecap="round" stroke-miterlimit="2" stroke-width="1" d="M21.871 5.915c4.323 0.962 7.295 2.951 7.295 5.248v5.098c0 0.329-0.145 0.641-0.397 0.853s-0.584 0.302-0.908 0.245c-0.262-0.046-0.535-0.093-0.791-0.137-0.714-0.123-1.445 0.095-1.975 0.589 0 0 0 0 0 0-1.544 1.442-5.96 2.032-8.843 2.061-2.149 0.021-2.809-0.421-4.067-0.968 0 0-1.335 1.336-2.514 2.836-0.842 1.072-1.769 0.765-2.276 0.119-0.754-0.96-1.053-3.201-1.683-3.607-0.742-0.477-1.482-0.952-2.025-1.302-0.532-0.342-0.853-0.931-0.853-1.563 0-1.524 0-4.226 0-4.226 0-1.972 2.19-3.717 5.545-4.78"></path>
<path   stroke-linejoin="round" stroke-linecap="round" stroke-miterlimit="2" stroke-width="1" d="M28.529 17.268v3.852c0 3.079-5.614 5.579-12.529 5.579-5.814 0-10.707-1.767-12.119-4.16-0.268-0.453-0.41-0.929-0.41-1.419v-4.338"></path>
<path   stroke-linejoin="round" stroke-linecap="round" stroke-miterlimit="2" stroke-width="1" d="M25.911 9.97l0.091 0.91"></path>
<path   stroke-linejoin="round" stroke-linecap="round" stroke-miterlimit="2" stroke-width="1" d="M6.845 11.881l-0.546-0.728"></path>
<path   stroke-linejoin="round" stroke-linecap="round" stroke-miterlimit="2" stroke-width="1" d="M16.616 9.97c0 1.524-1.235 2.76-2.759 2.76s-2.759-1.235-2.759-2.759c0-1.524 1.235-2.76 2.759-2.76s2.759 1.235 2.759 2.76z"></path>
<path   stroke-linejoin="round" stroke-linecap="round" stroke-miterlimit="2" stroke-width="1" d="M20.366 8.751c0 0.925-0.75 1.675-1.675 1.675s-1.675-0.75-1.675-1.675c0-0.925 0.75-1.675 1.675-1.675s1.675 0.75 1.675 1.675z"></path>
<path   stroke-linejoin="round" stroke-linecap="round" stroke-miterlimit="2" stroke-width="1" d="M18.692 7.076c0 0-0.349-1.773 0.979-2.693"></path>
<path   stroke-linejoin="round" stroke-linecap="round" stroke-miterlimit="2" stroke-width="1" d="M13.791 8.767c0 0 0.033-3.966-4.119-4.767"></path>
</symbol>




<symbol id="icon-milk" viewBox="0 0 32 32">
<path stroke-linejoin="round" stroke-linecap="round" stroke-miterlimit="2" stroke-width="1" d="M23.5 11.145h-15v15.124c0 0.68 0.551 1.231 1.231 1.231 2.819 0 9.719 0 12.538 0 0.68 0 1.231-0.551 1.231-1.231 0-3.805 0-15.124 0-15.124z"></path>
<path stroke-linejoin="round" stroke-linecap="round" stroke-miterlimit="2" stroke-width="1" d="M23.5 11.145h-15l2.5-4.089h10l2.5 4.089z"></path>
<path stroke-linejoin="round" stroke-linecap="round" stroke-miterlimit="2" stroke-width="1" d="M21 5.731c0-0.327-0.13-0.639-0.36-0.87s-0.544-0.361-0.87-0.361c-1.922 0-5.616 0-7.538 0-0.326 0-0.639 0.13-0.87 0.361s-0.361 0.544-0.361 0.87c0 0.654 0 1.325 0 1.325h10v-1.325z"></path>
<path stroke-linejoin="round" stroke-linecap="round" stroke-miterlimit="2" stroke-width="1" d="M16 15.745c1.242 0 2.25 2.564 2.25 3.833s-1.008 2.3-2.25 2.3-2.25-1.031-2.25-2.3c0-1.27 1.008-3.834 2.25-3.834z"></path>
</symbol>


<symbol id="icon-salad" viewBox="0 0 32 32">
<path stroke-linejoin="round" stroke-linecap="round" stroke-miterlimit="2" stroke-width="1" d="M27.224 16.5c0.195 0 0.38 0.085 0.506 0.232s0.183 0.343 0.154 0.535c-0.087 0.584-0.218 1.448-0.363 2.419-0.587 3.916-3.951 6.814-7.912 6.814-2.318 0-4.903 0-7.221 0-3.96 0-7.324-2.897-7.912-6.814-0.146-0.971-0.276-1.836-0.363-2.419-0.029-0.192 0.027-0.387 0.154-0.535s0.312-0.232 0.506-0.232c3.62 0 18.828 0 22.448 0z"></path>
<path stroke-linejoin="round" stroke-linecap="round" stroke-miterlimit="2" stroke-width="1" d="M5.25 16.5c0 0 0.168-2.309 1.831-2.5"></path>
<path stroke-linejoin="round" stroke-linecap="round" stroke-miterlimit="2" stroke-width="1" d="M23.75 22.642c-1.314 1.078-2.991 1.716-4.8 1.716"></path>
<path stroke-linejoin="round" stroke-linecap="round" stroke-miterlimit="2" stroke-width="1" d="M21.5 26.252v0.685c0 0.415-0.165 0.812-0.458 1.105s-0.691 0.458-1.106 0.458c-2.092 0-5.78 0-7.872 0-0.415 0-0.813-0.165-1.106-0.458s-0.458-0.691-0.458-1.105c0-0.383 0-0.685 0-0.685"></path>
<path stroke-linejoin="round" stroke-linecap="round" stroke-miterlimit="2" stroke-width="1" d="M7.831 16.5c0.295-0.493 0.736-0.889 1.263-1.126-0.104-0.293-0.159-0.607-0.159-0.935 0-1.551 1.259-2.81 2.81-2.81 0.057 0 0.114 0.002 0.171 0.005-0.005-0.065-0.007-0.13-0.007-0.195 0-1.551 1.259-2.81 2.81-2.81 0.374 0 0.732 0.073 1.059 0.206 0.42-0.435 1.009-0.706 1.662-0.706 1.275 0 2.31 1.035 2.31 2.31s-1.035 2.31-2.31 2.31c-0.077 0-0.153-0.004-0.228-0.011-0.47 0.897-1.41 1.511-2.492 1.511-0.057 0-0.114-0.002-0.171-0.005 0.004 0.065 0.007 0.13 0.007 0.195 0 0.814-0.347 1.548-0.902 2.061"></path>
<path stroke-linejoin="round" stroke-linecap="round" stroke-miterlimit="2" stroke-width="1" d="M11 16.5c0 0-0.175-2.779 3.95-5"></path>
<path stroke-linejoin="round" stroke-linecap="round" stroke-miterlimit="2" stroke-width="1" d="M26 16.5c0 0-0.344-2.149-2-2 0 0-1.049-2.62-3-1.5"></path>
<path stroke-linejoin="round" stroke-linecap="round" stroke-miterlimit="2" stroke-width="1" d="M23.5 13.5c0 0 0.966-3.181-1.5-4"></path>
<path stroke-linejoin="round" stroke-linecap="round" stroke-miterlimit="2" stroke-width="1" d="M20.25 15.5l-0.5 0.5"></path>
</symbol>




<symbol id="icon-sandwich" viewBox="0 0 32 32">
<path stroke-linejoin="round" stroke-linecap="round" stroke-miterlimit="2" stroke-width="1" d="M13.834 10.304c-3.441 1.822-7.545 3.994-10.342 5.476-0.374 0.198-0.566 0.626-0.463 1.038s0.471 0.701 0.896 0.701c6.35 0 19.095 0 24.154 0 0.369 0 0.701-0.219 0.848-0.558s0.076-0.731-0.177-0.999c-2.293-2.428-6.61-6.999-8.052-8.525-0.285-0.301-0.736-0.376-1.102-0.182-0.718 0.38-2.008 1.063-3.594 1.902"></path>
<path stroke-linejoin="round" stroke-linecap="round" stroke-miterlimit="2" stroke-width="1" d="M3 16.817v1.934c0 0.247 0.099 0.485 0.273 0.66s0.413 0.273 0.66 0.273c4.050 0 20.082 0 24.133 0 0.247 0 0.485-0.098 0.66-0.273s0.273-0.413 0.273-0.66c0-0.874 0-2.046 0-2.046"></path>
<path stroke-linejoin="round" stroke-linecap="round" stroke-miterlimit="2" stroke-width="1" d="M3 21.901v2.809c0 0.247 0.099 0.485 0.273 0.66s0.413 0.273 0.66 0.273c4.050 0 20.082 0 24.133 0 0.247 0 0.485-0.099 0.66-0.273s0.273-0.413 0.273-0.66c0-1.108 0-2.809 0-2.809"></path>
<path stroke-linejoin="round" stroke-linecap="round" stroke-miterlimit="2" stroke-width="1" d="M16 19.684l3.628 4.432 3.628-4.432"></path>
<path stroke-linejoin="round" stroke-linecap="round" stroke-miterlimit="2" stroke-width="1" d="M3 21.852v0.271c0 0.598 0.485 1.083 1.083 1.083 0 0 0 0 0 0 0.287 0 0.563-0.114 0.766-0.317s0.317-0.479 0.317-0.766c0-0.151 0-0.255 0-0.255v0.255c0 0.288 0.114 0.563 0.317 0.766s0.479 0.317 0.766 0.317c0 0 0 0 0.001 0 0.287 0 0.563-0.114 0.766-0.317s0.317-0.479 0.317-0.766c0-0.151 0-0.255 0-0.255v0.255c0 0.288 0.114 0.563 0.317 0.766s0.479 0.317 0.766 0.317c0 0 0.001 0 0.001 0 0.287 0 0.563-0.114 0.766-0.317s0.317-0.479 0.317-0.766c0-0.151 0-0.255 0-0.255v0.255c0 0.288 0.114 0.563 0.317 0.766s0.479 0.317 0.766 0.317c0 0 0.001 0 0.001 0 0.287 0 0.563-0.114 0.766-0.317s0.317-0.479 0.317-0.766c0-0.151 0-0.255 0-0.255v0.255c0 0.288 0.114 0.563 0.318 0.766s0.479 0.317 0.765 0.317c0.001 0 0.001 0 0.001 0 0.287 0 0.563-0.114 0.765-0.317s0.318-0.479 0.318-0.766c0-0.151 0-0.255 0-0.255v0.235c0 0.609 0.493 1.103 1.103 1.103 0 0 0 0 0 0 0.609 0 1.103-0.494 1.103-1.103 0-0.14 0-0.235 0-0.235"></path>
<path stroke-linejoin="round" stroke-linecap="round" stroke-miterlimit="2" stroke-width="1" d="M22.5 21.867v0.255c0 0.288 0.114 0.563 0.317 0.766s0.479 0.317 0.766 0.317c0 0 0 0 0 0 0.288 0 0.563-0.114 0.766-0.317s0.317-0.479 0.317-0.766c0-0.151 0-0.255 0-0.255v0.255c0 0.288 0.114 0.563 0.317 0.766s0.479 0.317 0.765 0.317c0 0 0 0 0.001 0 0.287 0 0.563-0.114 0.765-0.317s0.317-0.479 0.317-0.766c0-0.151 0-0.255 0-0.255v0.255c0 0.288 0.114 0.563 0.317 0.766s0.479 0.317 0.766 0.317c0 0 0 0 0 0 0.287 0 0.563-0.114 0.766-0.317s0.317-0.479 0.317-0.766c0-0.151 0-0.255 0-0.255"></path>
<path stroke-linejoin="round" stroke-linecap="round" stroke-miterlimit="2" stroke-width="1" d="M16 7.497v5.959"></path>
<path stroke-linejoin="round" stroke-linecap="round" stroke-miterlimit="2" stroke-width="1" d="M15.052 13.726h1.896"></path>
</symbol>
</defs>
</svg>
